<svg xmlns="http://www.w3.org/2000/svg" width="94.491" height="13.257" viewBox="0 0 94.491 13.257">
  <g id="raida-logo" transform="translate(-313.211 -150.743)">
    <path id="Path_64" data-name="Path 64" d="M83.667.392a2.867,2.867,0,0,0-2.941.027,4.424,4.424,0,0,0-1.013,1l-8.4,11.842h4.361l6.465-9.15,6.257,9.15h4.479L84.695,1.412A4.126,4.126,0,0,0,83.667.392" transform="translate(262.376 150.743)" fill="#fff"/>
    <path id="Path_65" data-name="Path 65" d="M267.383,1.412A4.117,4.117,0,0,0,266.354.392a2.868,2.868,0,0,0-2.94.027,4.42,4.42,0,0,0-1.013,1L254,13.257h4.361l6.465-9.15,6.257,9.15h4.479Z" transform="translate(132.142 150.743)" fill="#fff"/>
    <path id="Path_66" data-name="Path 66" d="M200.2,7.29a6.515,6.515,0,0,1-6.515,6.515h-2.466l-2.89-3.161h5.357a3.355,3.355,0,0,0,0-6.71H183.631L180.74.772h12.948A6.519,6.519,0,0,1,200.2,7.29" transform="translate(184.366 150.193)" fill="#fff"/>
    <path id="Path_67" data-name="Path 67" d="M12.238,3.817a2.109,2.109,0,1,1,0,4.218H6.933l5.533,5.774H17.1l-3.1-3.048A5.149,5.149,0,0,0,12.238.773H0L.174.959,2.9,3.817Z" transform="translate(313.211 150.192)" fill="#fff"/>
    <rect id="Rectangle_45" data-name="Rectangle 45" width="3.682" height="13.035" transform="translate(358.415 150.965)" fill="#fff"/>
  </g>
</svg>
