<svg xmlns="http://www.w3.org/2000/svg" width="142.656" height="74.677" viewBox="0 0 142.656 74.677">
  <g id="sky-logo" transform="translate(-1506.768 -114.429)">
    <path id="Path_95" data-name="Path 95" d="M337.5,209.053H323.271a32.588,32.588,0,0,0-3.129-4.047,26.471,26.471,0,0,0-1.936-1.835l-.064-.055-.064-.055c-.679-.606-1.367-1.175-2.074-1.7a28.578,28.578,0,0,0-6.681-3.524,24.3,24.3,0,0,0-7.654-1.459,22.7,22.7,0,0,0-3.184.165,20.19,20.19,0,0,0-4.662,1.147,19.116,19.116,0,0,0-11.26,11.389H233.08c.707,4.2,3.818,6.607,6.525,6.883a28.639,28.639,0,0,0,3.074,0h38.58v1.78c.055.826.156,1.67.284,2.505H243.349c.679,4.194,3.671,6.6,6.231,6.883a28.5,28.5,0,0,0,2.937,0h31.2l.266.551a29.66,29.66,0,0,0,1.835,3.23H257.16c.688,4.194,3.735,6.6,6.424,6.883a30.1,30.1,0,0,0,3.019,0h25.558a28.757,28.757,0,0,0,3.827,2.5c.67.358,1.358.688,2.046.991H270.871c.679,4.2,3.671,6.6,6.231,6.883a28.5,28.5,0,0,0,2.937,0h50.473a28.5,28.5,0,0,0,2.937,0c2.588-.284,5.552-2.68,6.222-6.883H317.159c.266-.147.541-.3.8-.468s.569-.34.844-.523a19.394,19.394,0,0,0,3.028-2.5h21.621c1.046,0,2.12.1,3.157,0a8.03,8.03,0,0,0,6.69-6.883H326.2a21.383,21.383,0,0,0,.918-3.23,3.276,3.276,0,0,1,.1-.5v-.046h30.495a29.745,29.745,0,0,0,3,0c2.643-.284,5.671-2.689,6.369-6.883H327.4c-.055-.45-.119-.918-.2-1.34s-.147-.8-.239-1.193c-.138-.6-.3-1.193-.477-1.78h39.791a27.953,27.953,0,0,0,3.038,0c2.68-.275,5.745-2.68,6.424-6.883ZM326.07,224.7a22.412,22.412,0,0,1-.817,3.909,21.889,21.889,0,0,1-.918,2.3l-.055.138a12.528,12.528,0,0,1-.918,1.634,16.518,16.518,0,0,1-2.028,2.753,17.952,17.952,0,0,1-1.835,1.771,17.134,17.134,0,0,1-5.35,3.01l-.275.1c-.661.22-1.331.413-2.01.569a20.257,20.257,0,0,1-2.872.422,19.117,19.117,0,0,1-2.9,0,10.866,10.866,0,0,1-1.624-.184,22.942,22.942,0,0,1-3.5-.808,25.394,25.394,0,0,1-6.185-2.973l-.211-.138a25.608,25.608,0,0,1-2.514-1.918l-.1-.083-.1-.092a27.575,27.575,0,0,1-2.4-2.459c-.431-.514-.844-1.037-1.248-1.578a25.824,25.824,0,0,1-3.818-7.516,2.068,2.068,0,0,0-.073-.22c-.174-.578-.33-1.165-.459-1.753a22.343,22.343,0,0,1-.514-3.808V216a21.689,21.689,0,0,1,.2-2.3,3.785,3.785,0,0,1,.064-.45c.092-.541.193-1.074.321-1.6a18.748,18.748,0,0,1,3.047-6.589,18.005,18.005,0,0,1,5.818-5.084,19.216,19.216,0,0,1,6.929-2.157,21.28,21.28,0,0,1,7.387.523,24.291,24.291,0,0,1,6.828,2.808,28.451,28.451,0,0,1,3.606,2.625h.046a29.526,29.526,0,0,1,3.074,3.267,25.941,25.941,0,0,1,2.845,4.506,21.685,21.685,0,0,1,.918,2.046,24.033,24.033,0,0,1,1.239,4.075,23.479,23.479,0,0,1,.459,3.432v.4A22.412,22.412,0,0,1,326.07,224.7Z" transform="translate(1273.688 -81.947)" fill="#fff"/>
    <path id="Path_96" data-name="Path 96" d="M320.277,234l-.34.128c-.257.1-.523.193-.789.275l-.523.156a6.8,6.8,0,0,1-1.835.349c.532,1.835,1.019,3.781,1.551,5.745.468-.119.973-.248,1.45-.395l.34-.11c.587-.2,1.12-.4,1.7-.652-.569-1.835-1.046-3.671-1.56-5.368A.524.524,0,0,1,320.277,234Z" transform="translate(1266.798 -85.044)" fill="#fff"/>
    <path id="Path_97" data-name="Path 97" d="M304.356,229.566a17.537,17.537,0,0,1-7.406-11.012,12.994,12.994,0,0,1,2.56-10.93,11.516,11.516,0,0,1,3.441-2.753c-.34-1.459-.679-2.826-1.065-4.231a15.84,15.84,0,0,0-8.259,6.424,16.858,16.858,0,0,0-2.083,4.928,18.116,18.116,0,0,0-.4,6.13c.046.4.092.817.156,1.239a22.6,22.6,0,0,0,6.048,12.068q.422.459.918.918a23.444,23.444,0,0,0,4.717,3.414,20.878,20.878,0,0,0,8.213,2.469c-.532-2.166-1.019-4.286-1.505-6.3A16.665,16.665,0,0,1,304.356,229.566Z" transform="translate(1268.917 -82.298)" fill="#fff"/>
    <path id="Path_98" data-name="Path 98" d="M309.7,203.331a14.6,14.6,0,0,1,1.551.055c-.385-1.266-.725-2.469-1.12-3.671a13.1,13.1,0,0,0-1.5-.055c-.486,0-1.019.055-1.505.1.34,1.211.679,2.469,1.019,3.735A8.082,8.082,0,0,1,309.7,203.331Z" transform="translate(1267.593 -82.217)" fill="#fff"/>
    <path id="Path_99" data-name="Path 99" d="M328.507,214.227c-.128-.34-.266-.67-.413-1a23.071,23.071,0,0,0-5.589-7.764,22.474,22.474,0,0,0-8.81-4.983c.385,1.257.817,2.57,1.257,3.873a16.134,16.134,0,0,1,3.974,2.12,16.877,16.877,0,0,1,4.5,4.689c-1.211.147-2.414.248-3.671.395a12.02,12.02,0,0,0-2.469-2.313,10.545,10.545,0,0,0-6.828-2.12,8.2,8.2,0,0,0-6.048,3.175,8.837,8.837,0,0,0-1.4,7.461,11.7,11.7,0,0,0,4.983,7.25,10.352,10.352,0,0,0,8.039,1.771,8.021,8.021,0,0,0,5.506-4.488,9.176,9.176,0,0,0,.725-3.175c1.3-.2,2.56-.45,3.772-.652a13.407,13.407,0,0,1-.817,6.424,11.269,11.269,0,0,1-2.469,3.827c.275.918.56,1.835.844,2.7s.6,1.909.918,2.9a15.279,15.279,0,0,0,2.56-2.9,16.372,16.372,0,0,0,2.625-6.525,19.327,19.327,0,0,0-.083-6.809A21.7,21.7,0,0,0,328.507,214.227Z" transform="translate(1267.957 -82.285)" fill="#fff"/>
    <path id="Path_100" data-name="Path 100" d="M256.575,275.534a3.533,3.533,0,0,0,1.184-2.753q0-.138,0-.275a4.093,4.093,0,0,0-.835-2.166l-.34-.339a3.992,3.992,0,0,0-2.753-.973h-4.946a2.009,2.009,0,0,1-.844-.174.771.771,0,0,1-.486-.716.78.78,0,0,1,.486-.716,1.624,1.624,0,0,1,.844-.211h6.956l1.6-2.671h-8.792a3.992,3.992,0,0,0-2.753.982,3.524,3.524,0,0,0-1.193,2.753,2.756,2.756,0,0,0,0,.284,3.965,3.965,0,0,0,.835,2.157,2.96,2.96,0,0,0,.34.339,3.992,3.992,0,0,0,2.753.982h4.946a1.89,1.89,0,0,1,.853.174.762.762,0,0,1,.486.716.8.8,0,0,1-.486.716,1.725,1.725,0,0,1-.853.2h-6.956l-1.588,2.671H253.8A3.955,3.955,0,0,0,256.575,275.534Z" transform="translate(1272.732 -87.557)" fill="#fff"/>
    <path id="Path_101" data-name="Path 101" d="M272.095,264.5h-4.533l-4.662,4.1v-4.1H259.88v11.985H262.9v-4.01l4.662,4.01h4.589l-6.984-5.9Z" transform="translate(1271.482 -87.554)" fill="#fff"/>
    <path id="Path_102" data-name="Path 102" d="M281.288,269.373l-3.643-4.873H273.79l5.947,7.993v3.992h3.019v-3.974l5.772-8.011h-3.845Z" transform="translate(1270.337 -87.554)" fill="#fff"/>
    <path id="Path_103" data-name="Path 103" d="M306.864,264.488l-1.266,6.332-2.753-5.4a2.083,2.083,0,0,0-.7-.771,1.744,1.744,0,0,0-.918-.294,1.633,1.633,0,0,0-1.477,1.065l-2.753,5.4-1.285-6.332h-3.3l2.524,10.636a2.139,2.139,0,0,0,.633,1.083,1.551,1.551,0,0,0,1.092.441c.642,0,1.193-.459,1.652-1.395l2.973-5.965,2.973,5.965c.459.918,1.019,1.395,1.652,1.395a1.588,1.588,0,0,0,1.12-.459,2.01,2.01,0,0,0,.606-1.064l2.524-10.636Z" transform="translate(1268.805 -87.542)" fill="#fff"/>
    <path id="Path_104" data-name="Path 104" d="M319.166,264.9a1.669,1.669,0,0,0-2.239,0,3.038,3.038,0,0,0-.826.918l-6.231,10.645h3.79l4.387-7.406,2.524,4.3h0l1.835,3.1h3.717L320,265.874A3.028,3.028,0,0,0,319.166,264.9Z" transform="translate(1267.368 -87.551)" fill="#fff"/>
    <path id="Path_105" data-name="Path 105" d="M331.37,264.5h-3.01v11.985h8.59l1.955-3.093H331.37Z" transform="translate(1265.846 -87.554)" fill="#fff"/>
    <path id="Path_106" data-name="Path 106" d="M343.65,264.5h-3.01v11.985h8.59l1.955-3.093H343.65Z" transform="translate(1264.835 -87.554)" fill="#fff"/>
    <path id="Path_107" data-name="Path 107" d="M366.855,264.5l-1.945,3.111h4.01v8.874h3.019v-8.874h2.909L376.8,264.5Z" transform="translate(1262.838 -87.554)" fill="#fff"/>
    <path id="Path_108" data-name="Path 108" d="M356.2,271.961h2.872l1.936-3.093H356.2v-1.257h5.589l1.945-3.111H353.18v11.985h8.608l1.945-3.093H356.2Z" transform="translate(1263.803 -87.554)" fill="#fff"/>
  </g>
</svg>
