<svg id="skylogo2" xmlns="http://www.w3.org/2000/svg" xmlns:xlink="http://www.w3.org/1999/xlink" width="216.425" height="119.983" viewBox="0 0 216.425 119.983">
  <defs>
    <clipPath id="clip-path">
      <rect id="Rectangle_3" data-name="Rectangle 3" width="216.425" height="119.983" fill="#fff" stroke="rgba(0,0,0,0)" stroke-width="1"/>
    </clipPath>
  </defs>
  <g id="Group_1" data-name="Group 1" clip-path="url(#clip-path)">
    <path id="Path_1" data-name="Path 1" d="M0,254.361c0,7.413,5.4,13.376,13.859,13.376a14.456,14.456,0,0,0,10.556-4.19l-2.5-4.512a11.578,11.578,0,0,1-7.493,3.224,7.794,7.794,0,0,1-7.977-7.977,7.6,7.6,0,0,1,7.816-7.9,10.005,10.005,0,0,1,6.607,2.74l2.82-4.351s-3.142-3.867-9.83-3.867C5.4,240.905,0,247.028,0,254.361m26.912,4.754c0,7.332,4.351,8.219,7.816,8.219a13.884,13.884,0,0,0,2.015-.161v-5.56a5.436,5.436,0,0,1-.967.081c-1.612,0-2.579-.725-2.579-3.545v-26.59H26.912Zm10.716-4.754c0,7.816,6.285,13.376,14.1,13.376,7.735,0,14.02-5.56,14.02-13.376s-6.285-13.456-14.1-13.456c-7.735,0-14.02,5.64-14.02,13.456m6.446,0a7.623,7.623,0,1,1,15.229,0,7.619,7.619,0,1,1-15.229,0m24.494,3.626c0,6.929,3.384,9.749,8.863,9.749a9.9,9.9,0,0,0,8.864-5.318h.08s-.08.806-.08,1.773v2.9H92.42V241.55H86.055v11.683c0,4.593-2.579,8.622-7.171,8.622-3.143,0-3.948-2.1-3.948-5.157V241.55H68.569Zm27.154-3.626c0,7.9,4.432,13.376,11.361,13.376a8.875,8.875,0,0,0,7.977-4.432h.081s-.081.725-.081,1.692v2.095H121.1V231.558h-6.365v12.65h-.081s-1.773-3.3-7.332-3.3c-6.768,0-11.6,5.318-11.6,13.456m6.446,0c0-5.076,2.9-7.977,6.365-7.977,4.271,0,6.365,3.948,6.365,7.9,0,5.64-3.062,8.057-6.365,8.057-3.787,0-6.365-3.142-6.365-7.977m22.158,0c0,7.413,5.4,13.376,13.859,13.376a14.677,14.677,0,0,0,10.556-4.19l-2.5-4.512a11.842,11.842,0,0,1-7.493,3.224,7.745,7.745,0,0,1-7.977-7.977,7.577,7.577,0,0,1,7.735-7.9,10.078,10.078,0,0,1,6.688,2.74l2.82-4.351s-3.143-3.867-9.83-3.867c-8.46,0-13.859,6.123-13.859,13.456m25.3,0c0,7.816,6.285,13.376,14.1,13.376,7.735,0,14.02-5.56,14.02-13.376s-6.285-13.456-14.1-13.456c-7.735,0-14.02,5.64-14.02,13.456m6.446,0a7.623,7.623,0,1,1,15.229,0,7.62,7.62,0,1,1-15.229,0M180.891,237.2h6.366v-5.64h-6.366Zm0,29.893h6.366V241.55h-6.366Zm11.442,0H198.7V255.409a9.767,9.767,0,0,1,.483-3.465,7.014,7.014,0,0,1,6.849-5.157c3.223,0,4.028,2.1,4.028,5.157v15.148h6.365V250.654c0-6.768-3.223-9.749-8.863-9.749a10.123,10.123,0,0,0-9.1,5.318h-.081s.081-.806.081-1.692V241.55h-6.124Z" transform="translate(0 -147.754)" fill="#fff" stroke="rgba(0,0,0,0)" stroke-width="1"/>
    <path id="Path_2" data-name="Path 2" d="M201.132.006a41.9,41.9,0,0,1,12.731,2.337,48.139,48.139,0,0,1,11.119,5.64,47.526,47.526,0,0,1,9.105,8.46,43.4,43.4,0,0,1,6.687,11.039,38.2,38.2,0,0,1,3.062,12.65c0,.4.081.725.081,1.128a17.253,17.253,0,0,1-3.868,34.084H172.287a23.99,23.99,0,0,1-5-47.459,29.844,29.844,0,0,1,1.773-7.01A31.686,31.686,0,0,1,176.879,8.95a33.31,33.31,0,0,1,11.2-6.849A36.386,36.386,0,0,1,201.132.006m23.045,9.185A45.783,45.783,0,0,0,213.7,3.874a37.656,37.656,0,0,0-12.087-2.014A33.128,33.128,0,0,0,189.53,3.874a28.638,28.638,0,0,0-10.394,6.607,28.933,28.933,0,0,0-7.091,11.2,31.994,31.994,0,0,0-1.451,15.309,37.746,37.746,0,0,0,6.285,16.115,43.74,43.74,0,0,0,12.811,12.409,41.358,41.358,0,0,0,16.115,6.043,34.1,34.1,0,0,0,16.115-1.451,28.972,28.972,0,0,0,18.451-18.533A32.835,32.835,0,0,0,241.9,39.649a36.616,36.616,0,0,0-2.82-12.006A41.592,41.592,0,0,0,232.8,17.169a45.062,45.062,0,0,0-8.622-7.977" transform="translate(-94.612 0)" fill="#fff" stroke="rgba(0,0,0,0)" stroke-width="1"/>
    <path id="Path_3" data-name="Path 3" d="M250.692,13.375c.887,0,1.692,0,2.5.081.645,1.934,1.209,3.867,1.853,5.882-.886-.08-1.692-.08-2.578-.08a13.973,13.973,0,0,0-2.579.241c-.564-2.014-1.128-4.028-1.692-5.962.806-.081,1.692-.161,2.5-.161m9.025,1.209a37.8,37.8,0,0,1,14.665,7.977,36.875,36.875,0,0,1,9.991,14.02,31.311,31.311,0,0,1,1.934,17,25.459,25.459,0,0,1-8.622,15.068c-.967-3.062-1.933-5.963-2.9-8.944a17.827,17.827,0,0,0,4.109-6.124,20.722,20.722,0,0,0,1.369-10.233c-2.014.322-4.109.725-6.285,1.047a13.78,13.78,0,0,1-1.209,5.076,13.215,13.215,0,0,1-9.185,7.171,17.755,17.755,0,0,1-13.376-2.82,18.763,18.763,0,0,1-8.3-11.6,13.325,13.325,0,0,1,12.409-17A17.994,17.994,0,0,1,265.679,28.6a19.915,19.915,0,0,1,4.109,3.707c2.1-.242,4.11-.4,6.124-.645a27.634,27.634,0,0,0-7.494-7.493,26.979,26.979,0,0,0-6.607-3.384c-.725-2.1-1.45-4.19-2.095-6.2M271.4,72.6c-.967.4-1.853.725-2.82,1.047s-2.014.564-2.981.806c-.886-3.143-1.692-6.2-2.578-9.185A12.2,12.2,0,0,0,266,64.7a27.211,27.211,0,0,0,2.74-.886c.886,2.82,1.692,5.8,2.659,8.783m-14.262,2.337a37.067,37.067,0,0,1-21.513-9.508A35.921,35.921,0,0,1,224.1,44.719a26.972,26.972,0,0,1,3.867-19.661,26.27,26.27,0,0,1,13.7-10.313c.645,2.256,1.209,4.432,1.773,6.768a19.183,19.183,0,0,0-5.721,4.432,20.215,20.215,0,0,0-4.27,17.485,28.5,28.5,0,0,0,21.191,21.433c.806,3.223,1.612,6.607,2.5,10.072" transform="translate(-142.721 -8.534)" fill="#fff" stroke="rgba(0,0,0,0)" stroke-width="1" fill-rule="evenodd"/>
  </g>
</svg>
