<?xml version="1.0" encoding="iso-8859-1"?>
<!-- Generator: Adobe Illustrator 19.0.0, SVG Export Plug-In . SVG Version: 6.00 Build 0)  -->
<svg version="1.1" id="Capa_1" xmlns="http://www.w3.org/2000/svg" xmlns:xlink="http://www.w3.org/1999/xlink" x="0px" y="0px"
	 viewBox="0 0 512.001 512.001" style="enable-background:new 0 0 512.001 512.001;" xml:space="preserve">
<g>
	<g>
		<path d="M498.808,377.784l-63.633-63.647c-16.978-16.978-46.641-17.007-63.647,0l-10.611,10.611l127.284,127.277l10.607-10.607
			C516.427,423.798,516.368,395.314,498.808,377.784z"/>
	</g>
</g>
<g>
	<g>
		<path d="M339.116,345.37c-13.39,10.373-32.492,9.959-44.727-2.303L168.572,217.163c-12.263-12.263-12.676-31.379-2.303-44.736
			L39.278,45.443c-54.631,63.68-52.495,159.633,7.8,219.928l199.103,199.19c57.86,57.858,152.635,65.532,219.932,7.797
			L339.116,345.37z"/>
	</g>
</g>
<g>
	<g>
		<path d="M197.503,76.391L133.87,12.744c-16.978-16.978-46.641-17.007-63.647,0L59.612,23.355l127.284,127.277l10.607-10.608
			C215.121,122.406,215.063,93.922,197.503,76.391z"/>
	</g>
</g>
<g>
</g>
<g>
</g>
<g>
</g>
<g>
</g>
<g>
</g>
<g>
</g>
<g>
</g>
<g>
</g>
<g>
</g>
<g>
</g>
<g>
</g>
<g>
</g>
<g>
</g>
<g>
</g>
<g>
</g>
</svg>
