<svg xmlns="http://www.w3.org/2000/svg" width="21.031" height="23.269" viewBox="0 0 21.031 23.269">
  <g id="withdrawal" transform="translate(-0.5 0)" opacity="0.63">
    <path id="Path_7" data-name="Path 7" d="M129.172,204.98h1.119a1.79,1.79,0,0,0,3.58,0v-1.342a.448.448,0,1,1,.9,0V206.1a.671.671,0,1,0,1.342,0V204.98h1.119a.671.671,0,0,0,0-1.342h-1.119a1.79,1.79,0,0,0-3.58,0v1.342a.448.448,0,1,1-.9,0v-2.461a.671.671,0,1,0-1.342,0v1.119h-1.119a.671.671,0,1,0,0,1.342Zm0,0" transform="translate(-122.183 -192.675)" fill="#fff"/>
    <path id="Path_8" data-name="Path 8" d="M128.274,339.691a.671.671,0,0,0-.671.671v1.669a2.247,2.247,0,0,0-1.463,1.463h-4.681A2.247,2.247,0,0,0,120,342.031v-1.669a.671.671,0,1,0-1.342,0V342.6a.671.671,0,0,0,.671.671.9.9,0,0,1,.9.895.671.671,0,0,0,.671.671h5.817a.671.671,0,0,0,.671-.671.9.9,0,0,1,.9-.895.671.671,0,0,0,.671-.671v-2.237a.671.671,0,0,0-.671-.671Zm0,0" transform="translate(-112.783 -324.253)" fill="#fff"/>
    <path id="Path_9" data-name="Path 9" d="M18.511,0H3.521a3.02,3.02,0,0,0-.336,6.022V22.6a.671.671,0,0,0,.671.671H18.175a.671.671,0,0,0,.671-.671V6.022A3.02,3.02,0,0,0,18.511,0ZM17.5,21.926H4.528V3.8H5.87V7.16a.671.671,0,1,0,1.342,0V3.8h7.607V7.16a.671.671,0,1,0,1.342,0V3.8H17.5ZM19.7,4.207a1.666,1.666,0,0,1-.851.458V3.132a.671.671,0,0,0-.671-.671H3.856a.671.671,0,0,0-.671.671V4.665a1.678,1.678,0,0,1,.336-3.323H18.511A1.678,1.678,0,0,1,19.7,4.207Zm0,0" fill="#fff"/>
  </g>
</svg>
