<?xml version="1.0" encoding="utf-8"?>
<!-- Generator: Adobe Illustrator 21.0.2, SVG Export Plug-In . SVG Version: 6.00 Build 0)  -->
<svg version="1.1" id="Layer_1" xmlns="http://www.w3.org/2000/svg" xmlns:xlink="http://www.w3.org/1999/xlink" x="0px" y="0px"
	 viewBox="0 0 640 480" style="enable-background:new 0 0 640 480;" xml:space="preserve">
<style type="text/css">
	.st0{fill:#338FFF;}
	.st1{fill-rule:evenodd;clip-rule:evenodd;fill:#338FFF;}
</style>
<g>
	<path class="st0" d="M21,368.8c0,20.5,14.9,37,38.3,37c19.1,0,29.2-11.6,29.2-11.6l-6.9-12.5c0,0-8.7,8.9-20.7,8.9
		c-13.4,0-22-10.2-22-22c0-12,8.5-21.8,21.6-21.8c10.9,0,18.3,7.6,18.3,7.6l7.8-12c0,0-8.7-10.7-27.2-10.7
		C35.9,331.6,21,348.5,21,368.8L21,368.8z M95.4,381.9c0,20.3,12,22.7,21.6,22.7c2.9,0,5.6-0.4,5.6-0.4v-15.4c0,0-1.1,0.2-2.7,0.2
		c-4.5,0-7.1-2-7.1-9.8v-73.5H95.4V381.9z M125,368.8c0,21.6,17.4,37,39,37c21.4,0,38.7-15.4,38.7-37s-17.4-37.2-39-37.2
		C142.3,331.6,125,347.2,125,368.8L125,368.8z M142.8,368.8c0-13.1,9.6-22,21.2-22c11.4,0,20.9,8.9,20.9,22
		c0,13.1-9.6,21.8-20.9,21.8C152.4,390.6,142.8,381.9,142.8,368.8L142.8,368.8z M210.5,378.8c0,19.1,9.4,26.9,24.5,26.9
		c12,0,20.9-7.3,24.5-14.7h0.2c0,0-0.2,2.2-0.2,4.9v8h16.9v-70.6h-17.6v32.3c0,12.7-7.1,23.8-19.8,23.8c-8.7,0-10.9-5.8-10.9-14.2
		v-41.9h-17.6V378.8z M285.5,368.8c0,21.8,12.2,37,31.4,37c16,0,22-12.2,22-12.2h0.2c0,0-0.2,2-0.2,4.7v5.8h16.7v-98.2H338v30.9
		c0,2.2,0,4,0,4h-0.2c0,0-4.9-9.1-20.3-9.1C298.8,331.6,285.5,346.3,285.5,368.8L285.5,368.8z M303.3,368.8c0-14,8-22,17.6-22
		c11.8,0,17.6,10.9,17.6,21.8c0,15.6-8.5,22.3-17.6,22.3C310.4,390.8,303.3,382.2,303.3,368.8L303.3,368.8z M364.5,368.8
		c0,20.5,14.9,37,38.3,37c18.9,0,29.2-11.6,29.2-11.6l-6.9-12.5c0,0-8.9,8.9-20.7,8.9c-13.6,0-22-10.2-22-22
		c0-12,8.5-21.8,21.4-21.8c11.1,0,18.5,7.6,18.5,7.6l7.8-12c0,0-8.7-10.7-27.2-10.7C379.4,331.6,364.5,348.5,364.5,368.8
		L364.5,368.8z M434.4,368.8c0,21.6,17.4,37,39,37c21.4,0,38.7-15.4,38.7-37s-17.4-37.2-39-37.2
		C451.8,331.6,434.4,347.2,434.4,368.8L434.4,368.8z M452.2,368.8c0-13.1,9.6-22,21.2-22c11.4,0,20.9,8.9,20.9,22
		c0,13.1-9.6,21.8-20.9,21.8C461.8,390.6,452.2,381.9,452.2,368.8L452.2,368.8z M520.8,321.4h17.6v-15.6h-17.6V321.4z M520.8,404
		h17.6v-70.6h-17.6V404z M552.4,404H570v-32.3c0-3.3,0.2-6.7,1.3-9.6c2.7-8.5,9.6-14.2,18.9-14.2c8.9,0,11.1,5.8,11.1,14.2V404H619
		v-45.4c0-18.7-8.9-26.9-24.5-26.9c-14.2,0-22,8.9-25.2,14.7h-0.2c0,0,0.2-2.2,0.2-4.7v-8.2h-16.9V404z"/>
	<path class="st0" d="M315.3,74.3c12.2,0.2,24,2.7,35.2,6.5c10.9,3.8,21.2,9.1,30.7,15.6c9.1,6.5,17.8,14.5,25.2,23.4
		c7.3,8.9,13.8,19.1,18.5,30.5c4.9,11.6,7.8,23.4,8.5,35c0,1.1,0.2,2,0.2,3.1c21.2,4.7,37.2,23.8,37.2,46.5
		c0,26.3-21.4,47.6-47.9,47.6c-59.2,0-123.6,0-187.2,0c-36.7,0-66.3-29.6-66.3-66.1c0-32.1,22.5-58.6,52.5-65
		c0.9-6.7,2.4-13.1,4.9-19.4c4.7-12.7,12.2-24,21.6-33c8.9-8.2,19.4-14.7,30.9-18.9C290.4,76,302.4,74,315.3,74.3L315.3,74.3z
		 M379,99.6c-8.9-6-18.7-11.1-28.9-14.7c-10.5-3.6-21.8-5.6-33.4-5.6c-11.8-0.2-23.2,1.8-33.4,5.6c-10.9,4-20.7,10.2-28.7,18.3
		c-8.7,8.5-15.4,18.9-19.6,30.9c-4.5,12.7-6.2,26.9-4,42.3c2.2,16,8.2,31.2,17.4,44.5c9.4,13.8,21.4,25.4,35.4,34.3
		c13.8,8.7,28.9,14.5,44.5,16.7c15.1,2.2,30.3,0.9,44.5-4c13.4-4.5,24.5-12,33.2-21.2c8.2-8.7,14-18.9,17.8-30.1
		c3.3-10.5,4.9-21.6,4.2-33c-0.7-10.9-3.1-22-7.8-33.2c-4.5-10.7-10.2-20.3-17.4-28.9C395.9,113.4,387.9,105.9,379,99.6L379,99.6z"
		/>
	<path class="st1" d="M319.3,87.6c2.4,0,4.7,0,6.9,0.2c1.8,5.3,3.3,10.7,5.1,16.3c-2.4-0.2-4.7-0.2-7.1-0.2c-2.4,0-4.7,0.2-7.1,0.7
		c-1.6-5.6-3.1-11.1-4.7-16.5C314.7,87.8,317.1,87.6,319.3,87.6L319.3,87.6z M344.3,91c14.9,4.2,28.9,11.8,40.5,22
		c11.8,10.5,21.4,23.2,27.6,38.7c6.2,15.6,8,32.1,5.3,47c-2.9,16-10.9,30.7-23.8,41.6c-2.7-8.5-5.3-16.5-8-24.7
		c4.9-4.7,8.7-10.5,11.4-16.9c3.6-8.7,4.9-18.3,3.8-28.3c-5.6,0.9-11.4,2-17.4,2.9c-0.2,4.9-1.3,9.6-3.3,14
		c-4.7,9.6-13.4,17.1-25.4,19.8c-12.5,2.7-25.8-0.4-37-7.8c-11.4-7.3-20-18.7-22.9-32.1c-3.1-12.7-0.2-24.5,6.5-33
		c6.2-8,16-13.1,27.8-14c11.1-0.7,22.3,2.9,31.4,9.4c4.2,2.9,8,6.2,11.4,10.2c5.8-0.7,11.4-1.1,16.9-1.8
		c-5.6-8.2-12.7-15.4-20.7-20.7c-5.8-4-11.8-7.1-18.3-9.4C348.1,102.3,346,96.5,344.3,91L344.3,91z M376.5,251.3
		c-2.7,1.1-5.1,2-7.8,2.9c-2.7,0.9-5.6,1.6-8.2,2.2c-2.4-8.7-4.7-17.1-7.1-25.4c2.9-0.2,5.6-0.7,8.2-1.6c2.7-0.7,5.1-1.6,7.6-2.4
		C371.7,234.8,373.9,243,376.5,251.3L376.5,251.3z M337.1,257.7c-21.6-1.8-42.5-11.1-59.4-26.3c-16.7-15.1-28.5-35.6-31.8-57.2
		c-3.6-21.4,1.1-39.6,10.7-54.3c8.9-13.4,22.3-23.4,37.8-28.5c1.8,6.2,3.3,12.2,4.9,18.7c-6,3.1-11.4,7.1-15.8,12.2
		c-10.5,12-15.6,29.2-11.8,48.3c4,20,16.9,37.6,34.1,48.8c7.6,4.9,15.8,8.5,24.5,10.5C332.5,238.8,334.7,248.1,337.1,257.7
		L337.1,257.7z"/>
</g>
</svg>
