<?xml version="1.0" encoding="utf-8"?>
<!-- Generator: Adobe Illustrator 21.0.2, SVG Export Plug-In . SVG Version: 6.00 Build 0)  -->
<svg version="1.1" id="RAIDA_Logo" xmlns="http://www.w3.org/2000/svg" xmlns:xlink="http://www.w3.org/1999/xlink" x="0px" y="0px"
	 viewBox="0 0 329.1 62.5" style="enable-background:new 0 0 329.1 62.5;" xml:space="preserve">
<style type="text/css">
	.st0{fill:#520A76;}
</style>
<g>
	<g id="Name2">
		<path class="st0" d="M3.6,59.5c1.7,0,2.5-1.1,2.5-2.4c0-1.2-0.9-2.4-2.6-2.4H0.2v7.8h0.6v-3h2.1l2.7,3h0.8L3.6,59.5z M0.8,59v-3.7
			h2.8c1.3,0,1.9,1,1.9,1.9c0,1.1-0.6,1.9-2,1.9H0.8z"/>
		<path class="st0" d="M8.2,61.9v-3.1h4.6v-0.5H8.2v-3H13v-0.6H7.6v7.8h5.5v-0.6H8.2z"/>
		<path class="st0" d="M17.3,54.7h-2.7v7.8h2.7c2.7,0,4-2,4-4C21.3,56.6,20,54.7,17.3,54.7z M17.3,61.9h-2v-6.7h2
			c2.3,0,3.3,1.6,3.4,3.3C20.7,60.2,19.6,61.9,17.3,61.9z"/>
		<path class="st0" d="M28.3,54.6v4.9c0,3.4-4.8,3.4-4.8,0v-4.9h-0.6v4.9c0,4.1,6,4.1,6,0v-4.9H28.3z"/>
		<path class="st0" d="M36.3,54.7v6.5L31,54.7h-0.3v7.8h0.6v-6.5l5.3,6.5h0.2v-7.8H36.3z"/>
		<path class="st0" d="M41.4,54.7h-2.7v7.8h2.7c2.7,0,4-2,4-4C45.4,56.6,44.1,54.7,41.4,54.7z M41.4,61.9h-2.1v-6.7h2.1
			c2.3,0,3.3,1.6,3.4,3.3C44.8,60.2,43.8,61.9,41.4,61.9z"/>
		<path class="st0" d="M50.4,54.7h-0.7l-3.5,7.8h0.6l0.8-1.9h4.7l0.9,1.9h0.7L50.4,54.7z M47.9,60l2.1-4.8l2.1,4.8H47.9z"/>
		<path class="st0" d="M60.7,54.7v6.5l-5.3-6.5h-0.3v7.8h0.6v-6.5l5.3,6.5h0.2v-7.8H60.7z"/>
		<path class="st0" d="M62.6,54.7v0.5h2.8v7.3H66v-7.3h2.8v-0.5H62.6z"/>
		<path class="st0" d="M76.9,54.7h-0.7l-3.5,7.8h0.6l0.8-1.9h4.7l0.9,1.9h0.6L76.9,54.7z M74.5,60l2.1-4.8l2.1,4.8H74.5z"/>
		<path class="st0" d="M85.1,59.5c1.7,0,2.5-1.1,2.5-2.4c0-1.2-0.9-2.4-2.6-2.4h-3.4v7.8h0.6v-3h2.1l2.7,3h0.8L85.1,59.5z M82.3,59
			v-3.7h2.8c1.3,0,1.9,1,1.9,1.9c0,1.1-0.6,1.9-2,1.9H82.3z"/>
		<path class="st0" d="M92.6,59.5c1.7,0,2.5-1.1,2.5-2.4c0-1.2-0.9-2.4-2.6-2.4h-3.4v7.8h0.6v-3h2.1l2.7,3h0.8L92.6,59.5z M89.7,59
			v-3.7h2.8c1.3,0,1.9,1,1.9,1.9c0,1.1-0.6,1.9-2,1.9H89.7z"/>
		<path class="st0" d="M100,54.7h-0.7l-3.5,7.8h0.6l0.9-1.9h4.7l0.9,1.9h0.6L100,54.7z M97.5,60l2.1-4.8l2.1,4.8H97.5z"/>
		<path class="st0" d="M108.8,54.7l-2.7,4.1l-2.7-4.1h-0.7v0l3.1,4.7v3.1h0.6v-3.1l3.1-4.7v0H108.8z"/>
		<path class="st0" d="M117.7,54.4c-2.6,0-4,1.9-4,4c0,2.1,1.3,4.1,4,4.1s3.9-2,3.9-4C121.7,56.4,120.4,54.4,117.7,54.4z M117.7,62
			c-2.2,0-3.3-1.7-3.4-3.5c0-1.9,1.1-3.5,3.4-3.5c2.2,0,3.4,1.7,3.4,3.5C121.1,60.2,119.9,62,117.7,62z"/>
		<path class="st0" d="M128.6,55.3v-0.6h-5.3v7.8h0.6V59h4.5v-0.6h-4.5v-3.1H128.6z"/>
		<path class="st0" d="M133.5,54.7v7.8h0.6v-7.8H133.5z"/>
		<path class="st0" d="M141.5,54.7v6.5l-5.3-6.5H136v7.8h0.6v-6.5l5.3,6.5h0.2v-7.8H141.5z"/>
		<path class="st0" d="M146.7,54.7H144v7.8h2.7c2.7,0,4-2,4-4C150.6,56.6,149.3,54.7,146.7,54.7z M146.7,61.9h-2v-6.7h2
			c2.3,0,3.3,1.6,3.4,3.3C150.1,60.2,149,61.9,146.7,61.9z"/>
		<path class="st0" d="M152.8,61.9v-3.1h4.6v-0.5h-4.6v-3h4.8v-0.6h-5.4v7.8h5.5v-0.6H152.8z"/>
		<path class="st0" d="M162.8,54.7h-3.4v7.8h0.6v-2.7h2.8C166.2,59.8,166.2,54.7,162.8,54.7z M162.8,59.3h-2.8v-4h2.8
			C165.4,55.2,165.4,59.3,162.8,59.3z"/>
		<path class="st0" d="M167.5,61.9v-3.1h4.6v-0.5h-4.6v-3h4.8v-0.6h-5.4v7.8h5.5v-0.6H167.5z"/>
		<path class="st0" d="M179.7,54.7v6.5l-5.3-6.5h-0.3v7.8h0.6v-6.5l5.3,6.5h0.2v-7.8H179.7z"/>
		<path class="st0" d="M184.9,54.7h-2.7v7.8h2.7c2.7,0,4-2,4-4C188.8,56.6,187.6,54.7,184.9,54.7z M184.9,61.9h-2.1v-6.7h2.1
			c2.3,0,3.3,1.6,3.4,3.3C188.3,60.2,187.2,61.9,184.9,61.9z"/>
		<path class="st0" d="M191.1,61.9v-3.1h4.6v-0.5h-4.6v-3h4.8v-0.6h-5.4v7.8h5.5v-0.6H191.1z"/>
		<path class="st0" d="M203.3,54.7v6.5l-5.3-6.5h-0.3v7.8h0.6v-6.5l5.3,6.5h0.2v-7.8H203.3z"/>
		<path class="st0" d="M205.3,54.7v0.5h2.8v7.3h0.6v-7.3h2.8v-0.5H205.3z"/>
		<path class="st0" d="M218.8,54.7h-2.7v7.8h2.7c2.7,0,4-2,4-4C222.7,56.6,221.5,54.7,218.8,54.7z M218.8,61.9h-2.1v-6.7h2.1
			c2.3,0,3.3,1.6,3.4,3.3C222.2,60.2,221.1,61.9,218.8,61.9z"/>
		<path class="st0" d="M225,61.9v-3.1h4.6v-0.5H225v-3h4.8v-0.6h-5.4v7.8h5.5v-0.6H225z"/>
		<path class="st0" d="M231.3,54.7v0.5h2.8v7.3h0.6v-7.3h2.8v-0.5H231.3z"/>
		<path class="st0" d="M239.5,61.9v-3.1h4.6v-0.5h-4.6v-3h4.8v-0.6h-5.4v7.8h5.5v-0.6H239.5z"/>
		<path class="st0" d="M249.7,62c-2.3,0-3.4-1.6-3.4-3.4c0-1.9,1.2-3.5,3.4-3.5c0.9,0,1.8,0.3,2.4,1l0.4-0.4
			c-0.8-0.8-1.8-1.2-2.9-1.2c-2.7,0-4.1,2-4,4c0,2.1,1.4,4,4,4c1,0,2.1-0.4,2.9-1.2l-0.4-0.4C251.4,61.6,250.5,62,249.7,62z"/>
		<path class="st0" d="M253.4,54.7v0.5h2.8v7.3h0.6v-7.3h2.8v-0.5H253.4z"/>
		<path class="st0" d="M261.1,54.7v7.8h0.6v-7.8H261.1z"/>
		<path class="st0" d="M267.4,54.4c-2.6,0-3.9,1.9-3.9,4c0,2.1,1.3,4.1,3.9,4.1c2.6,0,3.9-2,4-4C271.4,56.4,270.1,54.4,267.4,54.4z
			 M267.4,62c-2.2,0-3.3-1.7-3.3-3.5c0-1.9,1.1-3.5,3.3-3.5c2.3,0,3.4,1.7,3.4,3.5C270.8,60.2,269.7,62,267.4,62z"/>
		<path class="st0" d="M278.6,54.7v6.5l-5.3-6.5h-0.3v7.8h0.6v-6.5l5.3,6.5h0.2v-7.8H278.6z"/>
		<path class="st0" d="M287.8,54.7h-0.7l-3.5,7.8h0.6l0.8-1.9h4.7l0.9,1.9h0.6L287.8,54.7z M285.4,60l2.1-4.8l2.1,4.8H285.4z"/>
		<path class="st0" d="M295.5,58.3v0.5h2.7V61c-0.7,0.6-1.5,0.9-2.4,0.9c-2.3,0-3.4-1.6-3.4-3.4c0-1.8,1.2-3.5,3.4-3.5
			c0.9,0,1.8,0.3,2.5,1l0.4-0.4c-0.8-0.8-1.8-1.2-2.9-1.2c-2.4,0-4,1.6-4,4c0,2.1,1.4,4,4,4c1.2,0,2.1-0.4,3-1.3v-2.9H295.5z"/>
		<path class="st0" d="M301.3,61.9v-3.1h4.6v-0.5h-4.6v-3h4.8v-0.6h-5.4v7.8h5.5v-0.6H301.3z"/>
		<path class="st0" d="M313.5,54.7v6.5l-5.3-6.5H308v7.8h0.6v-6.5l5.3,6.5h0.2v-7.8H313.5z"/>
		<path class="st0" d="M315.5,54.7v0.5h2.8v7.3h0.6v-7.3h2.8v-0.5H315.5z"/>
		<path class="st0" d="M325.8,58.1c-1.3-0.2-2.4-0.5-2.4-1.5c0-1.3,1.4-1.6,2.4-1.6c0.9,0,1.8,0.1,2.4,1.1l0.5-0.3
			c-0.8-1.2-1.7-1.3-2.9-1.3c-1.3,0-3,0.5-3,2.2c0,1.4,1.5,1.7,2.9,2c1.3,0.3,2.6,0.5,2.6,1.7c0,1.4-1.5,1.7-2.5,1.7
			c-1,0-2.2-0.5-2.7-1.4l-0.5,0.3c0.6,1.2,2,1.7,3.2,1.7c1.3,0,3.1-0.4,3.1-2.2C328.9,58.6,327.4,58.4,325.8,58.1z"/>
	</g>
	<g id="Name">
		<path class="st0" d="M114.3,1.4c-1.3-0.9-3-1.4-5-1.4c-2.1,0-3.9,0.5-5.2,1.5c-1.4,1-2.6,2.2-3.5,3.5L71.3,46.2h15.2L109,14.3
			l21.8,31.9h15.6L117.9,4.9C116.9,3.5,115.7,2.3,114.3,1.4z"/>
		<path class="st0" d="M300.6,4.9c-1-1.4-2.2-2.6-3.6-3.6c-1.3-0.9-3-1.4-5-1.4c-2.1,0-3.9,0.5-5.2,1.5c-1.4,1-2.6,2.2-3.5,3.5
			L254,46.2h15.2l22.5-31.9l21.8,31.9h15.6L300.6,4.9z"/>
		<path class="st0" d="M248.5,23.5c0,12.5-10.2,22.7-22.7,22.7h-8.6l-10.1-11h18.7c6.4,0,11.7-5.2,11.7-11.7s-5.2-11.7-11.7-11.7
			h-35l-10.1-11h45.1c6.3,0,11.9,2.5,16,6.7C246,11.5,248.5,17.2,248.5,23.5z"/>
		<path class="st0" d="M42.6,11.4c4,0,7.3,3.3,7.3,7.3s-3.3,7.3-7.3,7.3H24.1l19.3,20.1h16.1L48.8,35.6c6.9-2.5,11.8-9.1,11.8-16.8
			v0c0-9.9-8-17.9-17.9-17.9H0l0.6,0.6l9.5,10H42.6z"/>
		<rect x="157.4" y="0.8" class="st0" width="12.8" height="45.4"/>
	</g>
</g>
</svg>
